<?xml version="1.0" standalone="no"?><!DOCTYPE svg PUBLIC "-//W3C//DTD SVG 1.1//EN" "http://www.w3.org/Graphics/SVG/1.1/DTD/svg11.dtd"><svg t="1755506615649" class="icon" viewBox="0 0 1024 1024" version="1.1" xmlns="http://www.w3.org/2000/svg" p-id="18787" xmlns:xlink="http://www.w3.org/1999/xlink" width="200" height="200"><path d="M869.12 225.792L596.48 68.4032c-39.6288-22.9376-108.0832-22.9376-147.712 0L176.2304 225.792C135.5264 249.2416 102.4 306.6368 102.4 353.6384v314.7264c0 47.0016 33.1264 104.448 73.8304 127.8464l272.5888 157.3888c19.8656 11.4176 45.9776 17.7664 73.8304 17.7664 27.8016 0 54.016-6.2464 73.8816-17.7664l272.5888-157.3888c40.704-23.4496 73.8304-80.8448 73.8304-127.8464V353.6384c0-47.0016-33.1264-104.448-73.8304-127.8464zM501.1968 874.0864c0 9.472-2.048 17.2544-5.7856 21.9136a13.3632 13.3632 0 0 1-11.2128 5.0176 40.192 40.192 0 0 1-19.0464-6.144L214.016 749.824c-29.44-16.9472-54.3232-60.0576-54.3232-94.0032V391.2704c0-8.1408 1.6384-26.9312 16.9472-26.9312 5.4784 0 12.032 2.1504 19.0464 6.144l251.1872 145.0496c29.3888 16.9472 54.272 60.0576 54.272 94.0032v264.5504z m21.3504-403.2c-20.5312 0-40.2944-4.608-54.272-12.6464L217.088 313.1904c-10.8032-6.2464-17.1008-13.7728-17.1008-20.7872 0-6.9632 6.1952-14.4896 17.1008-20.736l251.1872-145.0496c13.8752-8.0384 33.7408-12.6464 54.272-12.6464 20.5824 0 40.3456 4.608 54.3232 12.6464l251.1872 145.0496c10.752 6.2464 16.9472 13.7728 16.9472 20.736 0 7.0144-6.144 14.5408-16.9472 20.7872L576.8704 458.24c-13.9776 8.0384-33.7408 12.6464-54.272 12.6464z m359.7312 184.832c0 33.9456-24.8832 77.056-54.3232 94.0032L604.672 879.104l-19.0464 6.144c-15.36 0-16.9984-18.7904-16.9984-26.88V593.92c0-33.9456 24.9344-77.056 54.3232-94.0544l223.3344-129.3824a40.192 40.192 0 0 1 18.9952-6.144c15.36 0 16.9984 18.7904 16.9984 26.9312v264.448z" fill="#0A0A0A" p-id="18788"></path><path d="M242.7904 468.8384c-19.456 0-35.2768 21.1968-35.2768 47.2064s15.872 47.2064 35.328 47.2064c19.4048 0 35.2256-21.1968 35.2256-47.2064s-15.872-47.2064-35.2768-47.2064z m0 160.4608c-19.456 0-35.2768 21.1968-35.2768 47.2064s15.872 47.2064 35.328 47.2064c19.4048 0 35.2256-21.1968 35.2256-47.2064s-15.872-47.2064-35.2768-47.2064z m135.68 68.3008c-19.456 0-35.328 21.1456-35.328 47.2064 0 26.0096 15.872 47.2064 35.328 47.2064 19.456 0 35.2768-21.1968 35.2768-47.2064 0-26.0608-15.872-47.2064-35.2768-47.2064z m304.128-143.2064c-19.456 0-35.2768 21.1968-35.2768 47.2064 0 26.0608 15.872 47.2064 35.328 47.2064 19.456 0 35.2256-21.1456 35.2256-47.2064 0-26.0096-15.7184-47.2064-35.2768-47.2064z m113.3568 50.6368c-19.456 0-35.2768 21.1456-35.2768 47.2064 0 26.0096 15.872 47.2064 35.328 47.2064 19.4048 0 35.2256-21.1968 35.2256-47.2064 0-26.0608-15.7184-47.2064-35.2768-47.2064z m-274.8416-350.1568c-28.5696 0-51.8144 15.872-51.8144 35.328 0 19.4048 23.2448 35.2256 51.8144 35.2256 28.6208 0 51.8656-15.872 51.8656-35.2768 0-19.456-23.2448-35.2768-51.8656-35.2768z m-130.6112 285.3376c-19.456 0-35.328 21.1968-35.328 47.2064s15.872 47.2064 35.328 47.2064c9.8816 0 19.3536-5.5296 26.0096-15.36 5.9904-8.704 9.2672-19.968 9.2672-31.744 0-26.112-15.872-47.3088-35.2768-47.3088z" fill="#0A0A0A" p-id="18789"></path></svg>